<?xml version="1.0" encoding="UTF-8"?>
<svg xmlns="http://www.w3.org/2000/svg" xmlns:xlink="http://www.w3.org/1999/xlink" width="64" height="64" viewBox="0 0 64 64" version="1.1">
<g id="surface1">
<path style=" stroke:none;fill-rule:nonzero;fill:rgb(79.607843%,88.627451%,100%);fill-opacity:1;" d="M 32.003906 60.417969 L 44.683594 57.214844 C 51.917969 51.207031 56.527344 42.140625 56.527344 32 C 56.527344 16.355469 45.5625 3.273438 30.902344 0.0195312 C 13.738281 0.597656 0 14.695312 0 32 C 0 40.890625 3.625 48.929688 9.476562 54.730469 Z M 32.003906 60.417969 "/>
<path style=" stroke:none;fill-rule:nonzero;fill:rgb(74.509804%,84.705882%,98.431373%);fill-opacity:1;" d="M 55.863281 32 C 55.863281 42.488281 50.816406 51.800781 43.019531 57.636719 L 54.523438 54.730469 C 60.375 48.929688 64 40.890625 64 32 C 64 14.328125 49.671875 0 32 0 C 30.621094 0 29.265625 0.0859375 27.933594 0.257812 C 43.683594 2.253906 55.863281 15.703125 55.863281 32 Z M 55.863281 32 "/>
<path style=" stroke:none;fill-rule:nonzero;fill:rgb(21.176471%,36.862745%,49.019608%);fill-opacity:1;" d="M 39.953125 12.117188 C 39.953125 10.484375 38.628906 9.160156 36.992188 9.160156 L 26.796875 9.160156 C 23.035156 9.160156 19.984375 12.210938 19.984375 15.96875 L 19.984375 23.53125 L 44.011719 23.53125 L 44.011719 16.078125 C 44.011719 14.441406 42.6875 13.117188 41.050781 13.117188 L 40.953125 13.117188 C 40.398438 13.117188 39.953125 12.671875 39.953125 12.117188 Z M 39.953125 12.117188 "/>
<path style=" stroke:none;fill-rule:nonzero;fill:rgb(16.862745%,30.196078%,40%);fill-opacity:1;" d="M 41.050781 13.117188 L 40.953125 13.117188 C 40.398438 13.117188 39.953125 12.671875 39.953125 12.117188 C 39.953125 10.484375 38.628906 9.160156 36.992188 9.160156 L 35.875 9.160156 L 35.875 23.53125 L 44.011719 23.53125 L 44.011719 16.078125 C 44.011719 14.445312 42.6875 13.117188 41.050781 13.117188 Z M 41.050781 13.117188 "/>
<path style=" stroke:none;fill-rule:nonzero;fill:rgb(29.019608%,50.196078%,66.666667%);fill-opacity:1;" d="M 53.128906 46.542969 C 52.347656 45.773438 51.378906 45.175781 50.28125 44.828125 L 41.546875 42.058594 L 32.003906 41.726562 L 22.453125 42.058594 L 13.71875 44.828125 C 10.761719 45.761719 8.753906 48.503906 8.753906 51.605469 L 8.753906 53.992188 C 14.351562 59.90625 22.183594 63.6875 30.902344 63.980469 C 40.667969 61.8125 48.792969 55.285156 53.128906 46.542969 Z M 53.128906 46.542969 "/>
<path style=" stroke:none;fill-rule:nonzero;fill:rgb(25.098039%,43.921569%,57.647059%);fill-opacity:1;" d="M 55.246094 53.992188 L 55.246094 51.605469 C 55.246094 49.414062 54.242188 47.398438 52.609375 46.078125 C 47.96875 55.53125 38.804688 62.363281 27.941406 63.742188 C 29.25 63.910156 30.585938 63.996094 31.941406 64 C 33.246094 63.996094 34.53125 63.921875 35.796875 63.777344 C 43.425781 62.875 50.230469 59.289062 55.246094 53.992188 Z M 55.246094 53.992188 "/>
<path style=" stroke:none;fill-rule:nonzero;fill:rgb(89.411765%,96.470588%,100%);fill-opacity:1;" d="M 32.722656 63.519531 C 34.660156 59.675781 39.703125 48.761719 38.265625 41.945312 L 32.003906 39.507812 L 25.734375 41.945312 C 24.25 48.972656 29.65625 60.355469 31.445312 63.855469 C 31.875 63.753906 32.300781 63.640625 32.722656 63.519531 Z M 32.722656 63.519531 "/>
<path style=" stroke:none;fill-rule:nonzero;fill:rgb(88.627451%,50.196078%,52.54902%);fill-opacity:1;" d="M 36.023438 60.472656 L 33.484375 50.484375 L 30.515625 50.484375 L 27.980469 60.445312 L 31.113281 63.933594 C 31.910156 63.75 32.691406 63.539062 33.464844 63.300781 Z M 36.023438 60.472656 "/>
<path style=" stroke:none;fill-rule:nonzero;fill:rgb(86.666667%,38.823529%,43.137255%);fill-opacity:1;" d="M 31.164062 63.988281 C 31.421875 63.996094 31.683594 64 31.941406 64 C 32.246094 64 32.546875 63.996094 32.84375 63.984375 L 34.460938 62.203125 C 33.1875 62.648438 31.882812 63.015625 30.546875 63.300781 Z M 31.164062 63.988281 "/>
<path style=" stroke:none;fill-rule:nonzero;fill:rgb(100%,86.666667%,80.784314%);fill-opacity:1;" d="M 37.347656 41.023438 L 37.347656 35.390625 L 26.648438 35.390625 L 26.648438 41.023438 C 26.648438 43.976562 31.996094 47.203125 31.996094 47.203125 C 31.996094 47.203125 37.347656 43.976562 37.347656 41.023438 Z M 37.347656 41.023438 "/>
<path style=" stroke:none;fill-rule:nonzero;fill:rgb(100%,86.666667%,80.784314%);fill-opacity:1;" d="M 44.011719 22.539062 L 41.964844 22.539062 C 40.828125 22.539062 39.90625 21.617188 39.90625 20.480469 L 39.90625 19.355469 C 39.90625 17.871094 38.457031 16.824219 37.050781 17.289062 C 33.769531 18.375 30.230469 18.375 26.949219 17.289062 L 26.945312 17.289062 C 25.539062 16.824219 24.089844 17.871094 24.089844 19.351562 L 24.089844 20.480469 C 24.089844 21.617188 23.167969 22.539062 22.03125 22.539062 L 19.984375 22.539062 L 19.984375 25.90625 C 19.984375 26.765625 20.683594 27.464844 21.542969 27.464844 C 21.816406 27.464844 22.035156 27.679688 22.050781 27.949219 C 22.382812 33.15625 26.707031 37.28125 32 37.28125 C 37.289062 37.28125 41.617188 33.15625 41.945312 27.949219 C 41.960938 27.679688 42.183594 27.464844 42.453125 27.464844 C 43.3125 27.464844 44.011719 26.769531 44.011719 25.90625 Z M 44.011719 22.539062 "/>
<path style=" stroke:none;fill-rule:nonzero;fill:rgb(100%,79.607843%,74.509804%);fill-opacity:1;" d="M 41.964844 22.539062 C 40.828125 22.539062 39.90625 21.617188 39.90625 20.480469 L 39.90625 19.355469 C 39.90625 17.871094 38.457031 16.824219 37.050781 17.289062 C 36.664062 17.417969 36.269531 17.53125 35.875 17.628906 L 35.875 28.75 C 35.820312 32.367188 33.835938 35.515625 30.910156 37.21875 C 31.265625 37.257812 31.628906 37.28125 31.996094 37.28125 C 37.289062 37.28125 41.613281 33.15625 41.945312 27.949219 C 41.960938 27.675781 42.179688 27.464844 42.453125 27.464844 C 43.3125 27.464844 44.011719 26.765625 44.011719 25.90625 L 44.011719 22.539062 Z M 41.964844 22.539062 "/>
<path style=" stroke:none;fill-rule:nonzero;fill:rgb(95.686275%,98.431373%,100%);fill-opacity:1;" d="M 26.648438 39.507812 L 22.453125 42.914062 L 26.851562 48.355469 C 27.386719 48.875 28.230469 48.90625 28.804688 48.429688 L 32.113281 45.664062 Z M 26.648438 39.507812 "/>
<path style=" stroke:none;fill-rule:nonzero;fill:rgb(95.686275%,98.431373%,100%);fill-opacity:1;" d="M 37.347656 39.507812 L 32.113281 45.664062 L 35.222656 48.324219 C 35.792969 48.8125 36.636719 48.785156 37.179688 48.269531 L 41.546875 42.914062 Z M 37.347656 39.507812 "/>
<path style=" stroke:none;fill-rule:nonzero;fill:rgb(21.176471%,36.862745%,49.019608%);fill-opacity:1;" d="M 26.648438 39.507812 L 20.492188 42.53125 C 20.023438 42.761719 19.835938 43.332031 20.074219 43.796875 L 21.28125 46.136719 C 21.59375 46.742188 21.476562 47.480469 20.996094 47.960938 C 20.746094 48.210938 20.476562 48.476562 20.246094 48.710938 C 19.828125 49.128906 19.679688 49.742188 19.863281 50.304688 C 21.316406 54.742188 28.328125 61.53125 30.980469 63.988281 C 31.160156 63.992188 31.335938 63.996094 31.515625 63.996094 C 29.59375 60.257812 22.777344 46.042969 26.648438 39.507812 Z M 26.648438 39.507812 "/>
<path style=" stroke:none;fill-rule:nonzero;fill:rgb(21.176471%,36.862745%,49.019608%);fill-opacity:1;" d="M 43.003906 47.960938 C 42.519531 47.480469 42.40625 46.742188 42.71875 46.136719 L 43.921875 43.796875 C 44.164062 43.332031 43.972656 42.761719 43.503906 42.53125 L 37.347656 39.507812 C 41.222656 46.039062 34.410156 60.25 32.484375 63.996094 C 32.664062 63.992188 32.84375 63.988281 33.023438 63.980469 C 35.683594 61.519531 42.679688 54.738281 44.136719 50.304688 C 44.320312 49.742188 44.171875 49.128906 43.753906 48.710938 C 43.519531 48.476562 43.25 48.210938 43.003906 47.960938 Z M 43.003906 47.960938 "/>
<path style=" stroke:none;fill-rule:nonzero;fill:rgb(86.666667%,38.823529%,43.137255%);fill-opacity:1;" d="M 32.113281 45.664062 L 28.855469 48.386719 L 30.515625 50.484375 L 33.484375 50.484375 L 35.144531 48.261719 Z M 32.113281 45.664062 "/>
</g>
</svg>
